<svg width="90" height="90" viewBox="0 0 90 90" fill="none" xmlns="http://www.w3.org/2000/svg">
<path d="M45 8.4375C65.1929 8.4375 81.5625 24.8071 81.5625 45C81.5625 65.1929 65.1929 81.5625 45 81.5625C24.8071 81.5625 8.4375 65.1929 8.4375 45C8.4375 24.8071 24.8071 8.4375 45 8.4375ZM45 10.7227C26.0691 10.7227 10.7227 26.0691 10.7227 45C10.7227 63.9309 26.0691 79.2773 45 79.2773C63.9309 79.2773 79.2773 63.9309 79.2773 45C79.2773 26.0691 63.9309 10.7227 45 10.7227ZM49.833 47.542H53.124V50.1123H49.833V55.8027H47.0908V50.1123H36.4307V47.3018L47.502 31.5H49.833V47.542ZM38.9326 47.542H47.0908V35.6475H47.0225L38.9326 47.542Z" fill="#FF7900"/>
<path d="M49.833 47.542H48.833V48.542H49.833V47.542ZM53.124 47.542H54.124V46.542H53.124V47.542ZM53.124 50.1123V51.1123H54.124V50.1123H53.124ZM49.833 50.1123V49.1123H48.833V50.1123H49.833ZM49.833 55.8027V56.8027H50.833V55.8027H49.833ZM47.0908 55.8027H46.0908V56.8027H47.0908V55.8027ZM47.0908 50.1123H48.0908V49.1123H47.0908V50.1123ZM36.4307 50.1123H35.4307V51.1123H36.4307V50.1123ZM36.4307 47.3018L35.6117 46.7279L35.4307 46.9863V47.3018H36.4307ZM47.502 31.5V30.5H46.9816L46.683 30.9262L47.502 31.5ZM49.833 31.5H50.833V30.5H49.833V31.5ZM38.9326 47.542L38.1057 46.9796L37.0431 48.542H38.9326V47.542ZM47.0908 47.542V48.542H48.0908V47.542H47.0908ZM47.0908 35.6475H48.0908V34.6475H47.0908V35.6475ZM47.0225 35.6475V34.6475H46.4932L46.1956 35.0851L47.0225 35.6475ZM45 8.4375V9.4375C64.6406 9.4375 80.5625 25.3594 80.5625 45H81.5625H82.5625C82.5625 24.2548 65.7452 7.4375 45 7.4375V8.4375ZM81.5625 45H80.5625C80.5625 64.6406 64.6406 80.5625 45 80.5625V81.5625V82.5625C65.7452 82.5625 82.5625 65.7452 82.5625 45H81.5625ZM45 81.5625V80.5625C25.3594 80.5625 9.4375 64.6406 9.4375 45H8.4375H7.4375C7.4375 65.7452 24.2548 82.5625 45 82.5625V81.5625ZM8.4375 45H9.4375C9.4375 25.3594 25.3594 9.4375 45 9.4375V8.4375V7.4375C24.2548 7.4375 7.4375 24.2548 7.4375 45H8.4375ZM45 10.7227V9.72266C25.5169 9.72266 9.72266 25.5169 9.72266 45H10.7227H11.7227C11.7227 26.6214 26.6214 11.7227 45 11.7227V10.7227ZM10.7227 45H9.72266C9.72266 64.4831 25.5169 80.2773 45 80.2773V79.2773V78.2773C26.6214 78.2773 11.7227 63.3786 11.7227 45H10.7227ZM45 79.2773V80.2773C64.4831 80.2773 80.2773 64.4831 80.2773 45H79.2773H78.2773C78.2773 63.3786 63.3786 78.2773 45 78.2773V79.2773ZM79.2773 45H80.2773C80.2773 25.5169 64.4831 9.72266 45 9.72266V10.7227V11.7227C63.3786 11.7227 78.2773 26.6214 78.2773 45H79.2773ZM49.833 47.542V48.542H53.124V47.542V46.542H49.833V47.542ZM53.124 47.542H52.124V50.1123H53.124H54.124V47.542H53.124ZM53.124 50.1123V49.1123H49.833V50.1123V51.1123H53.124V50.1123ZM49.833 50.1123H48.833V55.8027H49.833H50.833V50.1123H49.833ZM49.833 55.8027V54.8027H47.0908V55.8027V56.8027H49.833V55.8027ZM47.0908 55.8027H48.0908V50.1123H47.0908H46.0908V55.8027H47.0908ZM47.0908 50.1123V49.1123H36.4307V50.1123V51.1123H47.0908V50.1123ZM36.4307 50.1123H37.4307V47.3018H36.4307H35.4307V50.1123H36.4307ZM36.4307 47.3018L37.2497 47.8756L48.3209 32.0738L47.502 31.5L46.683 30.9262L35.6117 46.7279L36.4307 47.3018ZM47.502 31.5V32.5H49.833V31.5V30.5H47.502V31.5ZM49.833 31.5H48.833V47.542H49.833H50.833V31.5H49.833ZM38.9326 47.542V48.542H47.0908V47.542V46.542H38.9326V47.542ZM47.0908 47.542H48.0908V35.6475H47.0908H46.0908V47.542H47.0908ZM47.0908 35.6475V34.6475H47.0225V35.6475V36.6475H47.0908V35.6475ZM47.0225 35.6475L46.1956 35.0851L38.1057 46.9796L38.9326 47.542L39.7595 48.1044L47.8493 36.2098L47.0225 35.6475Z" fill="#FF7900"/>
</svg>
