<svg width="90" height="90" viewBox="0 0 90 90" fill="none" xmlns="http://www.w3.org/2000/svg">
<path d="M45 8.4375C65.1929 8.4375 81.5625 24.8071 81.5625 45C81.5625 65.1929 65.1929 81.5625 45 81.5625C24.8071 81.5625 8.4375 65.1929 8.4375 45C8.4375 24.8071 24.8071 8.4375 45 8.4375ZM45 10.7227C26.0691 10.7227 10.7227 26.0691 10.7227 45C10.7227 63.9309 26.0691 79.2773 45 79.2773C63.9309 79.2773 79.2773 63.9309 79.2773 45C79.2773 26.0691 63.9309 10.7227 45 10.7227ZM44.7939 31.5C47.102 31.5 48.9476 32.1516 50.3301 33.4541C51.7123 34.7565 52.4033 36.4358 52.4033 38.4922C52.4033 40.1604 51.935 41.6693 50.998 43.0176C50.061 44.3657 48.073 45.9194 45.0342 47.6787C43.2975 48.6842 42.0231 49.5982 41.2119 50.4209C40.4008 51.2435 39.8922 52.1804 39.6865 53.2314H52.1641V55.8027H36.293C36.4529 53.7006 36.9729 51.9123 37.8525 50.4385C38.7323 48.9646 40.3721 47.507 42.7715 46.0674C45.148 44.6506 46.8341 43.4226 47.8281 42.3828C48.822 41.3431 49.3184 40.0459 49.3184 38.4922C49.3183 37.2584 48.8786 36.2133 47.999 35.3564C47.1193 34.4996 45.994 34.0704 44.623 34.0703C43.1834 34.0703 42.0347 34.6076 41.1777 35.6816C40.3209 36.7556 39.8926 38.1496 39.8926 39.8633V40.1035H36.9785L36.9443 39.4863C36.9444 37.087 37.6474 35.1558 39.0527 33.6934C40.4581 32.231 42.3719 31.5 44.7939 31.5Z" fill="#FF7900"/>
<path d="M44.7939 31.5L44.7939 30.5L44.7939 30.5L44.7939 31.5ZM50.3301 33.4541L51.0159 32.7263L51.0158 32.7263L50.3301 33.4541ZM52.4033 38.4922L53.4033 38.4922L53.4033 38.4922L52.4033 38.4922ZM50.998 43.0176L51.8192 43.5883L51.8192 43.5882L50.998 43.0176ZM45.0342 47.6787L45.5352 48.5441L45.5352 48.5441L45.0342 47.6787ZM41.2119 50.4209L40.4999 49.7188L40.4999 49.7188L41.2119 50.4209ZM39.6865 53.2314L38.7051 53.0394L38.4719 54.2314H39.6865V53.2314ZM52.1641 53.2314H53.1641V52.2314H52.1641V53.2314ZM52.1641 55.8027V56.8027H53.1641V55.8027H52.1641ZM36.293 55.8027L35.2959 55.7269L35.214 56.8027H36.293V55.8027ZM37.8525 50.4385L36.9939 49.9259L36.9938 49.926L37.8525 50.4385ZM42.7715 46.0674L42.2594 45.2084L42.257 45.2099L42.7715 46.0674ZM47.8281 42.3828L48.5509 43.0739L48.551 43.0738L47.8281 42.3828ZM49.3184 38.4922L50.3184 38.4922L50.3184 38.4921L49.3184 38.4922ZM47.999 35.3564L48.6968 34.6401L48.6968 34.6401L47.999 35.3564ZM44.623 34.0703L44.6231 33.0703H44.623V34.0703ZM41.1777 35.6816L40.3961 35.058L40.3961 35.058L41.1777 35.6816ZM39.8926 39.8633L38.8926 39.8633V39.8633H39.8926ZM39.8926 40.1035V41.1035H40.8926V40.1035H39.8926ZM36.9785 40.1035L35.98 40.1588L36.0324 41.1035H36.9785V40.1035ZM36.9443 39.4863L35.9443 39.4863L35.9443 39.514L35.9459 39.5416L36.9443 39.4863ZM39.0527 33.6934L38.3317 33.0004L38.3317 33.0005L39.0527 33.6934ZM45 8.4375V9.4375C64.6406 9.4375 80.5625 25.3594 80.5625 45H81.5625H82.5625C82.5625 24.2548 65.7452 7.4375 45 7.4375V8.4375ZM81.5625 45H80.5625C80.5625 64.6406 64.6406 80.5625 45 80.5625V81.5625V82.5625C65.7452 82.5625 82.5625 65.7452 82.5625 45H81.5625ZM45 81.5625V80.5625C25.3594 80.5625 9.4375 64.6406 9.4375 45H8.4375H7.4375C7.4375 65.7452 24.2548 82.5625 45 82.5625V81.5625ZM8.4375 45H9.4375C9.4375 25.3594 25.3594 9.4375 45 9.4375V8.4375V7.4375C24.2548 7.4375 7.4375 24.2548 7.4375 45H8.4375ZM45 10.7227V9.72266C25.5169 9.72266 9.72266 25.5169 9.72266 45H10.7227H11.7227C11.7227 26.6214 26.6214 11.7227 45 11.7227V10.7227ZM10.7227 45H9.72266C9.72266 64.4831 25.5169 80.2773 45 80.2773V79.2773V78.2773C26.6214 78.2773 11.7227 63.3786 11.7227 45H10.7227ZM45 79.2773V80.2773C64.4831 80.2773 80.2773 64.4831 80.2773 45H79.2773H78.2773C78.2773 63.3786 63.3786 78.2773 45 78.2773V79.2773ZM79.2773 45H80.2773C80.2773 25.5169 64.4831 9.72266 45 9.72266V10.7227V11.7227C63.3786 11.7227 78.2773 26.6214 78.2773 45H79.2773ZM44.7939 31.5V32.5C46.9049 32.5 48.4856 33.0902 49.6443 34.1819L50.3301 33.4541L51.0158 32.7263C49.4095 31.2129 47.299 30.5 44.7939 30.5V31.5ZM50.3301 33.4541L49.6443 34.1819C50.8082 35.2786 51.4033 36.6859 51.4033 38.4922L52.4033 38.4922L53.4033 38.4922C53.4032 36.1858 52.6165 34.2345 51.0159 32.7263L50.3301 33.4541ZM52.4033 38.4922H51.4033C51.4033 39.96 50.9953 41.2692 50.1769 42.4469L50.998 43.0176L51.8192 43.5882C52.8746 42.0695 53.4033 40.3607 53.4033 38.4922H52.4033ZM50.998 43.0176L50.1769 42.4468C49.3751 43.6004 47.5575 45.0623 44.5331 46.8133L45.0342 47.6787L45.5352 48.5441C48.5885 46.7764 50.7469 45.131 51.8192 43.5883L50.998 43.0176ZM45.0342 47.6787L44.5331 46.8133C42.7671 47.8358 41.4035 48.8024 40.4999 49.7188L41.2119 50.4209L41.9239 51.123C42.6428 50.3941 43.8279 49.5326 45.5352 48.5441L45.0342 47.6787ZM41.2119 50.4209L40.4999 49.7188C39.5622 50.6697 38.9516 51.7802 38.7051 53.0394L39.6865 53.2314L40.6679 53.4235C40.8329 52.5806 41.2394 51.8173 41.924 51.123L41.2119 50.4209ZM39.6865 53.2314V54.2314H52.1641V53.2314V52.2314H39.6865V53.2314ZM52.1641 53.2314H51.1641V55.8027H52.1641H53.1641V53.2314H52.1641ZM52.1641 55.8027V54.8027H36.293V55.8027V56.8027H52.1641V55.8027ZM36.293 55.8027L37.2901 55.8786C37.4409 53.8962 37.9269 52.2651 38.7112 50.951L37.8525 50.4385L36.9938 49.926C36.0189 51.5596 35.4649 53.505 35.2959 55.7269L36.293 55.8027ZM37.8525 50.4385L38.7112 50.951C39.4693 49.681 40.9488 48.3272 43.286 46.9249L42.7715 46.0674L42.257 45.2099C39.7953 46.6869 37.9954 48.2481 36.9939 49.9259L37.8525 50.4385ZM42.7715 46.0674L43.2835 46.9263C45.68 45.4977 47.4608 44.2141 48.5509 43.0739L47.8281 42.3828L47.1053 41.6918C46.2073 42.631 44.6161 43.8035 42.2594 45.2084L42.7715 46.0674ZM47.8281 42.3828L48.551 43.0738C49.738 41.832 50.3184 40.2803 50.3184 38.4922H49.3184H48.3184C48.3184 39.8115 47.9059 40.8542 47.1053 41.6918L47.8281 42.3828ZM49.3184 38.4922L50.3184 38.4921C50.3183 36.9901 49.7707 35.6862 48.6968 34.6401L47.999 35.3564L47.3013 36.0728C47.9866 36.7403 48.3183 37.5267 48.3184 38.4922L49.3184 38.4922ZM47.999 35.3564L48.6968 34.6401C47.6082 33.5798 46.2221 33.0704 44.6231 33.0703L44.623 34.0703L44.623 35.0703C45.7659 35.0704 46.6304 35.4193 47.3013 36.0728L47.999 35.3564ZM44.623 34.0703V33.0703C42.8959 33.0703 41.453 33.7333 40.3961 35.058L41.1777 35.6816L41.9594 36.3053C42.6164 35.4819 43.4709 35.0703 44.623 35.0703V34.0703ZM41.1777 35.6816L40.3961 35.058C39.3657 36.3493 38.8926 37.9804 38.8926 39.8633L39.8926 39.8633L40.8926 39.8633C40.8926 38.3187 41.276 37.1619 41.9594 36.3053L41.1777 35.6816ZM39.8926 39.8633H38.8926V40.1035H39.8926H40.8926V39.8633H39.8926ZM39.8926 40.1035V39.1035H36.9785V40.1035V41.1035H39.8926V40.1035ZM36.9785 40.1035L37.977 40.0482L37.9428 39.431L36.9443 39.4863L35.9459 39.5416L35.98 40.1588L36.9785 40.1035ZM36.9443 39.4863L37.9443 39.4863C37.9444 37.2949 38.5796 35.629 39.7738 34.3862L39.0527 33.6934L38.3317 33.0005C36.7152 34.6826 35.9444 36.8791 35.9443 39.4863L36.9443 39.4863ZM39.0527 33.6934L39.7738 34.3863C40.9543 33.1578 42.5869 32.5 44.794 32.5L44.7939 31.5L44.7939 30.5C42.1568 30.5 39.9618 31.3042 38.3317 33.0004L39.0527 33.6934Z" fill="#FF7900"/>
</svg>
