<svg width="90" height="90" viewBox="0 0 90 90" fill="none" xmlns="http://www.w3.org/2000/svg">
<path d="M45 8.4375C65.1929 8.4375 81.5625 24.8071 81.5625 45C81.5625 65.1929 65.1929 81.5625 45 81.5625C24.8071 81.5625 8.4375 65.1929 8.4375 45C8.4375 24.8071 24.8071 8.4375 45 8.4375ZM45 10.7227C26.0691 10.7227 10.7227 26.0691 10.7227 45C10.7227 63.9309 26.0691 79.2773 45 79.2773C63.9309 79.2773 79.2773 63.9309 79.2773 45C79.2773 26.0691 63.9309 10.7227 45 10.7227ZM44.5205 31.5C46.8509 31.5001 48.6559 32.0768 49.9355 33.2305C51.2152 34.3845 51.8668 35.9676 51.8896 37.9785C51.8896 38.9839 51.6044 39.9095 51.0332 40.7549C50.4619 41.6004 49.6271 42.2973 48.5303 42.8457V42.9141C49.9698 43.234 51.061 43.9083 51.8037 44.9365C52.5463 45.9648 52.9179 47.2558 52.918 48.8096C52.918 51.0033 52.1521 52.78 50.6211 54.1396C49.0901 55.4993 47.0796 56.191 44.5889 56.2139C42.098 56.2139 40.1269 55.5222 38.6758 54.1396C37.2249 52.7571 36.4877 50.8434 36.4648 48.3984V48.2959H39.4131C39.4817 50.0097 39.9788 51.3294 40.9043 52.2549C41.8298 53.1802 43.0579 53.6436 44.5889 53.6436C45.6399 53.6435 46.5655 53.4263 47.3652 52.9922C48.165 52.558 48.7765 51.9866 49.1992 51.2783C49.6219 50.57 49.833 49.7927 49.833 48.9473C49.833 47.5076 49.3646 46.3764 48.4277 45.5537C47.4909 44.7311 46.1999 44.308 44.5547 44.2852C44.052 44.3309 43.5033 44.3658 42.9092 44.3887V41.9199C43.2291 41.9428 43.5946 41.9541 44.0059 41.9541C45.4455 41.9541 46.6056 41.5887 47.4854 40.8574C48.3649 40.1262 48.816 39.1666 48.8389 37.9785C48.8389 36.7902 48.4621 35.8474 47.708 35.1504C46.954 34.4535 45.8914 34.0932 44.5205 34.0703C43.0809 34.0703 41.9609 34.5335 41.1611 35.459C40.3613 36.3845 39.9383 37.6814 39.8926 39.3496H36.9795C37.1166 36.7903 37.8362 34.8478 39.1387 33.5225C40.4412 32.1971 42.2354 31.5229 44.5205 31.5Z" fill="#FF7900"/>
<path d="M44.5205 31.5L44.5205 30.4999L44.5105 30.5L44.5205 31.5ZM49.9355 33.2305L50.6052 32.4878L50.6052 32.4878L49.9355 33.2305ZM51.8896 37.9785L52.8897 37.9786L52.8896 37.9672L51.8896 37.9785ZM51.0332 40.7549L51.8618 41.3147L51.8618 41.3147L51.0332 40.7549ZM48.5303 42.8457L48.0831 41.9513L47.5303 42.2277V42.8457H48.5303ZM48.5303 42.9141H47.5303V43.7162L48.3133 43.8902L48.5303 42.9141ZM51.8037 44.9365L52.6144 44.351L52.6144 44.351L51.8037 44.9365ZM52.918 48.8096L53.918 48.8096L53.918 48.8095L52.918 48.8096ZM50.6211 54.1396L51.2851 54.8874L51.2851 54.8874L50.6211 54.1396ZM44.5889 56.2139L44.5889 57.2139L44.5981 57.2138L44.5889 56.2139ZM38.6758 54.1396L37.9859 54.8636L37.986 54.8637L38.6758 54.1396ZM36.4648 48.3984L35.4648 48.3984L35.4649 48.4078L36.4648 48.3984ZM36.4648 48.2959V47.2959H35.4648V48.2959H36.4648ZM39.4131 48.2959L40.4123 48.2559L40.3739 47.2959H39.4131V48.2959ZM40.9043 52.2549L40.1972 52.962L40.1972 52.962L40.9043 52.2549ZM44.5889 53.6436L44.5889 54.6436L44.5889 54.6436L44.5889 53.6436ZM47.3652 52.9922L47.8423 53.8711L47.8423 53.871L47.3652 52.9922ZM49.1992 51.2783L50.0579 51.7908L50.0579 51.7908L49.1992 51.2783ZM49.833 48.9473L50.833 48.9473V48.9473H49.833ZM48.4277 45.5537L49.0875 44.8023L49.0875 44.8023L48.4277 45.5537ZM44.5547 44.2852L44.5686 43.2853L44.5163 43.2845L44.4642 43.2893L44.5547 44.2852ZM42.9092 44.3887H41.9092V45.4279L42.9476 45.3879L42.9092 44.3887ZM42.9092 41.9199L42.9804 40.9225L41.9092 40.8459V41.9199H42.9092ZM44.0059 41.9541L44.0059 42.9541H44.0059V41.9541ZM47.4854 40.8574L48.1246 41.6265L48.1246 41.6264L47.4854 40.8574ZM48.8389 37.9785L49.8387 37.9978L49.8389 37.9881V37.9785H48.8389ZM47.708 35.1504L48.3867 34.416L48.3867 34.416L47.708 35.1504ZM44.5205 34.0703L44.5372 33.0705L44.5289 33.0703H44.5205V34.0703ZM41.1611 35.459L40.4045 34.8051L40.4045 34.8051L41.1611 35.459ZM39.8926 39.3496V40.3496H40.8656L40.8922 39.377L39.8926 39.3496ZM36.9795 39.3496L35.9809 39.2961L35.9245 40.3496H36.9795V39.3496ZM39.1387 33.5225L38.4254 32.8215L38.4254 32.8215L39.1387 33.5225ZM45 8.4375V9.4375C64.6406 9.4375 80.5625 25.3594 80.5625 45H81.5625H82.5625C82.5625 24.2548 65.7452 7.4375 45 7.4375V8.4375ZM81.5625 45H80.5625C80.5625 64.6406 64.6406 80.5625 45 80.5625V81.5625V82.5625C65.7452 82.5625 82.5625 65.7452 82.5625 45H81.5625ZM45 81.5625V80.5625C25.3594 80.5625 9.4375 64.6406 9.4375 45H8.4375H7.4375C7.4375 65.7452 24.2548 82.5625 45 82.5625V81.5625ZM8.4375 45H9.4375C9.4375 25.3594 25.3594 9.4375 45 9.4375V8.4375V7.4375C24.2548 7.4375 7.4375 24.2548 7.4375 45H8.4375ZM45 10.7227V9.72266C25.5169 9.72266 9.72266 25.5169 9.72266 45H10.7227H11.7227C11.7227 26.6214 26.6214 11.7227 45 11.7227V10.7227ZM10.7227 45H9.72266C9.72266 64.4831 25.5169 80.2773 45 80.2773V79.2773V78.2773C26.6214 78.2773 11.7227 63.3786 11.7227 45H10.7227ZM45 79.2773V80.2773C64.4831 80.2773 80.2773 64.4831 80.2773 45H79.2773H78.2773C78.2773 63.3786 63.3786 78.2773 45 78.2773V79.2773ZM79.2773 45H80.2773C80.2773 25.5169 64.4831 9.72266 45 9.72266V10.7227V11.7227C63.3786 11.7227 78.2773 26.6214 78.2773 45H79.2773ZM44.5205 31.5L44.5205 32.5C46.6919 32.5001 48.2265 33.036 49.2659 33.9732L49.9355 33.2305L50.6052 32.4878C49.0854 31.1176 47.01 30.5001 44.5205 30.5L44.5205 31.5ZM49.9355 33.2305L49.2658 33.9731C50.3031 34.9085 50.8695 36.2071 50.8897 37.9899L51.8896 37.9785L52.8896 37.9672C52.8641 35.728 52.1273 33.8604 50.6052 32.4878L49.9355 33.2305ZM51.8896 37.9785L50.8896 37.9785C50.8896 38.7815 50.6657 39.5126 50.2046 40.195L51.0332 40.7549L51.8618 41.3147C52.5431 40.3063 52.8896 39.1862 52.8896 37.9786L51.8896 37.9785ZM51.0332 40.7549L50.2046 40.195C49.7474 40.8716 49.0575 41.4641 48.0831 41.9513L48.5303 42.8457L48.9775 43.7401C50.1968 43.1305 51.1764 42.3291 51.8618 41.3147L51.0332 40.7549ZM48.5303 42.8457H47.5303V42.9141H48.5303H49.5303V42.8457H48.5303ZM48.5303 42.9141L48.3133 43.8902C49.555 44.1662 50.4167 44.7241 50.9931 45.5221L51.8037 44.9365L52.6144 44.351C51.7054 43.0926 50.3846 42.3017 48.7472 41.9379L48.5303 42.9141ZM51.8037 44.9365L50.993 45.522C51.5872 46.3447 51.9179 47.4181 51.918 48.8096L52.918 48.8096L53.918 48.8095C53.9179 47.0936 53.5055 45.5848 52.6144 44.351L51.8037 44.9365ZM52.918 48.8096H51.918C51.918 50.7404 51.2579 52.2367 49.9571 53.3919L50.6211 54.1396L51.2851 54.8874C53.0464 53.3232 53.918 51.2662 53.918 48.8096H52.918ZM50.6211 54.1396L49.9571 53.3919C48.6436 54.5584 46.8832 55.1928 44.5797 55.2139L44.5889 56.2139L44.5981 57.2138C47.276 57.1892 49.5365 56.4402 51.2851 54.8874L50.6211 54.1396ZM44.5889 56.2139V55.2139C42.2895 55.2139 40.5882 54.5805 39.3656 53.4156L38.6758 54.1396L37.986 54.8637C39.6655 56.4638 41.9066 57.2139 44.5889 57.2139V56.2139ZM38.6758 54.1396L39.3656 53.4157C38.1521 52.2594 37.4857 50.6272 37.4648 48.3891L36.4648 48.3984L35.4649 48.4078C35.4897 51.0596 36.2977 53.2549 37.9859 54.8636L38.6758 54.1396ZM36.4648 48.3984H37.4648V48.2959H36.4648H35.4648V48.3984H36.4648ZM36.4648 48.2959V49.2959H39.4131V48.2959V47.2959H36.4648V48.2959ZM39.4131 48.2959L38.4139 48.3359C38.4893 50.2209 39.0445 51.8093 40.1972 52.962L40.9043 52.2549L41.6114 51.5478C40.9132 50.8496 40.474 49.7986 40.4123 48.2559L39.4131 48.2959ZM40.9043 52.2549L40.1972 52.962C41.3418 54.1064 42.8409 54.6436 44.5889 54.6436V53.6436V52.6436C43.2749 52.6436 42.3177 52.254 41.6114 51.5477L40.9043 52.2549ZM44.5889 53.6436L44.5889 54.6436C45.7806 54.6435 46.8749 54.3962 47.8423 53.8711L47.3652 52.9922L46.8882 52.1133C46.2561 52.4564 45.4992 52.6435 44.5888 52.6436L44.5889 53.6436ZM47.3652 52.9922L47.8423 53.871C48.7831 53.3604 49.5338 52.6689 50.0579 51.7908L49.1992 51.2783L48.3405 50.7658C48.0191 51.3044 47.5469 51.7557 46.8881 52.1133L47.3652 52.9922ZM49.1992 51.2783L50.0579 51.7908C50.5757 50.9232 50.833 49.9681 50.833 48.9473L49.833 48.9473L48.833 48.9472C48.833 49.6173 48.6682 50.2168 48.3405 50.7659L49.1992 51.2783ZM49.833 48.9473H50.833C50.833 47.2692 50.2752 45.8451 49.0875 44.8023L48.4277 45.5537L47.7679 46.3051C48.4541 46.9077 48.833 47.7461 48.833 48.9473H49.833ZM48.4277 45.5537L49.0875 44.8023C47.9214 43.7784 46.3749 43.3104 44.5686 43.2853L44.5547 44.2852L44.5408 45.2851C46.0249 45.3057 47.0603 45.6838 47.7679 46.3052L48.4277 45.5537ZM44.5547 44.2852L44.4642 43.2893C43.9807 43.3332 43.4496 43.3671 42.8707 43.3894L42.9092 44.3887L42.9476 45.3879C43.557 45.3645 44.1232 45.3285 44.6452 45.281L44.5547 44.2852ZM42.9092 44.3887H43.9092V41.9199H42.9092H41.9092V44.3887H42.9092ZM42.9092 41.9199L42.8379 42.9174C43.1872 42.9423 43.5773 42.9541 44.0059 42.9541L44.0059 41.9541L44.0059 40.9541C43.6119 40.9541 43.2709 40.9432 42.9804 40.9225L42.9092 41.9199ZM44.0059 41.9541V42.9541C45.6169 42.9541 47.0226 42.5424 48.1246 41.6265L47.4854 40.8574L46.8462 40.0884C46.1885 40.635 45.2741 40.9541 44.0059 40.9541V41.9541ZM47.4854 40.8574L48.1246 41.6264C49.2374 40.7014 49.8104 39.4632 49.8387 37.9978L48.8389 37.9785L47.8391 37.9592C47.8215 38.87 47.4925 39.5511 46.8461 40.0884L47.4854 40.8574ZM48.8389 37.9785H49.8389C49.8389 36.5597 49.3786 35.3328 48.3867 34.416L47.708 35.1504L47.0293 35.8848C47.5456 36.362 47.8389 37.0208 47.8389 37.9785H48.8389ZM47.708 35.1504L48.3867 34.416C47.399 33.5031 46.0705 33.0961 44.5372 33.0705L44.5205 34.0703L44.5038 35.0702C45.7124 35.0904 46.5089 35.4038 47.0293 35.8848L47.708 35.1504ZM44.5205 34.0703V33.0703C42.8468 33.0703 41.4283 33.6205 40.4045 34.8051L41.1611 35.459L41.9177 36.1129C42.4935 35.4466 43.3149 35.0703 44.5205 35.0703V34.0703ZM41.1611 35.459L40.4045 34.8051C39.4071 35.9593 38.9427 37.507 38.893 39.3222L39.8926 39.3496L40.8922 39.377C40.9339 37.8559 41.3156 36.8096 41.9177 36.1128L41.1611 35.459ZM39.8926 39.3496V38.3496H36.9795V39.3496V40.3496H39.8926V39.3496ZM36.9795 39.3496L37.9781 39.4031C38.1071 36.9946 38.7756 35.3186 39.8519 34.2234L39.1387 33.5225L38.4254 32.8215C36.8967 34.3771 36.1261 36.586 35.9809 39.2961L36.9795 39.3496ZM39.1387 33.5225L39.8519 34.2234C40.928 33.1284 42.4455 32.5208 44.5305 32.5L44.5205 31.5L44.5105 30.5C42.0252 30.5249 39.9544 31.2658 38.4254 32.8215L39.1387 33.5225Z" fill="#FF7900"/>
</svg>
