<svg width="90" height="90" viewBox="0 0 90 90" fill="none" xmlns="http://www.w3.org/2000/svg">
<path d="M45 8.4375C65.1929 8.4375 81.5625 24.8071 81.5625 45C81.5625 65.1929 65.1929 81.5625 45 81.5625C24.8071 81.5625 8.4375 65.1929 8.4375 45C8.4375 24.8071 24.8071 8.4375 45 8.4375ZM45 10.7227C26.0691 10.7227 10.7227 26.0691 10.7227 45C10.7227 63.9309 26.0691 79.2773 45 79.2773C63.9309 79.2773 79.2773 63.9309 79.2773 45C79.2773 26.0691 63.9309 10.7227 45 10.7227ZM47.6738 31.5V55.8027H44.7598V38.3896H38.4531V36.0586H38.5557C40.6123 36.0586 42.2006 35.6932 43.3203 34.9619C44.44 34.2307 45.1482 33.0767 45.4453 31.5H47.6738Z" fill="#FF7900"/>
<path d="M47.6738 31.5H48.6738V30.5H47.6738V31.5ZM47.6738 55.8027V56.8027H48.6738V55.8027H47.6738ZM44.7598 55.8027H43.7598V56.8027H44.7598V55.8027ZM44.7598 38.3896H45.7598V37.3896H44.7598V38.3896ZM38.4531 38.3896H37.4531V39.3896H38.4531V38.3896ZM38.4531 36.0586V35.0586H37.4531V36.0586H38.4531ZM43.3203 34.9619L43.8671 35.7992L43.8671 35.7992L43.3203 34.9619ZM45.4453 31.5V30.5H44.6161L44.4626 31.3148L45.4453 31.5ZM45 8.4375V9.4375C64.6406 9.4375 80.5625 25.3594 80.5625 45H81.5625H82.5625C82.5625 24.2548 65.7452 7.4375 45 7.4375V8.4375ZM81.5625 45H80.5625C80.5625 64.6406 64.6406 80.5625 45 80.5625V81.5625V82.5625C65.7452 82.5625 82.5625 65.7452 82.5625 45H81.5625ZM45 81.5625V80.5625C25.3594 80.5625 9.4375 64.6406 9.4375 45H8.4375H7.4375C7.4375 65.7452 24.2548 82.5625 45 82.5625V81.5625ZM8.4375 45H9.4375C9.4375 25.3594 25.3594 9.4375 45 9.4375V8.4375V7.4375C24.2548 7.4375 7.4375 24.2548 7.4375 45H8.4375ZM45 10.7227V9.72266C25.5169 9.72266 9.72266 25.5169 9.72266 45H10.7227H11.7227C11.7227 26.6214 26.6214 11.7227 45 11.7227V10.7227ZM10.7227 45H9.72266C9.72266 64.4831 25.5169 80.2773 45 80.2773V79.2773V78.2773C26.6214 78.2773 11.7227 63.3786 11.7227 45H10.7227ZM45 79.2773V80.2773C64.4831 80.2773 80.2773 64.4831 80.2773 45H79.2773H78.2773C78.2773 63.3786 63.3786 78.2773 45 78.2773V79.2773ZM79.2773 45H80.2773C80.2773 25.5169 64.4831 9.72266 45 9.72266V10.7227V11.7227C63.3786 11.7227 78.2773 26.6214 78.2773 45H79.2773ZM47.6738 31.5H46.6738V55.8027H47.6738H48.6738V31.5H47.6738ZM47.6738 55.8027V54.8027H44.7598V55.8027V56.8027H47.6738V55.8027ZM44.7598 55.8027H45.7598V38.3896H44.7598H43.7598V55.8027H44.7598ZM44.7598 38.3896V37.3896H38.4531V38.3896V39.3896H44.7598V38.3896ZM38.4531 38.3896H39.4531V36.0586H38.4531H37.4531V38.3896H38.4531ZM38.4531 36.0586V37.0586H38.5557V36.0586V35.0586H38.4531V36.0586ZM38.5557 36.0586V37.0586C40.7096 37.0586 42.5192 36.6795 43.8671 35.7992L43.3203 34.9619L42.7735 34.1246C41.882 34.7069 40.5151 35.0586 38.5557 35.0586V36.0586ZM43.3203 34.9619L43.8671 35.7992C45.2597 34.8897 46.0914 33.4718 46.428 31.6852L45.4453 31.5L44.4626 31.3148C44.2051 32.6815 43.6203 33.5716 42.7735 34.1247L43.3203 34.9619ZM45.4453 31.5V32.5H47.6738V31.5V30.5H45.4453V31.5Z" fill="#FF7900"/>
</svg>
